<?xml version="1.0" encoding="UTF-8"?>
<!DOCTYPE svg PUBLIC "-//W3C//DTD SVG 1.1//EN" "http://www.w3.org/Graphics/SVG/1.1/DTD/svg11.dtd">
<!-- Creator: CorelDRAW 2020 (64 Bit) -->
<svg xmlns="http://www.w3.org/2000/svg" xml:space="preserve" width="5.3566mm" height="5.2059mm" version="1.1" style="shape-rendering:geometricPrecision; text-rendering:geometricPrecision; image-rendering:optimizeQuality; fill-rule:evenodd; clip-rule:evenodd"
viewBox="0 0 10.36 10.07"
 xmlns:xlink="http://www.w3.org/1999/xlink"
 xmlns:xodm="http://www.corel.com/coreldraw/odm/2003">
 <defs>
  <style type="text/css">
   <![CDATA[
    .str0 {stroke:black;stroke-width:0.15;stroke-miterlimit:22.9256}
    .fil0 {fill:white;fill-rule:nonzero}
   ]]>
  </style>
 </defs>
 <g id="Camada_x0020_1">
  <metadata id="CorelCorpID_0Corel-Layer"/>
  <path class="fil0 str0" d="M4.61 0.11c-2.35,0.26 -4.25,2.15 -4.5,4.45 -0.26,2.41 1.13,4.56 3.22,5.37 0.15,0.05 0.31,-0.05 0.31,-0.26l0 -0.82c0,0 -0.2,0.05 -0.46,0.05 -0.72,0 -1.02,-0.61 -1.07,-0.97 -0.05,-0.2 -0.15,-0.36 -0.31,-0.51 -0.15,-0.05 -0.2,-0.05 -0.2,-0.1 0,-0.1 0.15,-0.1 0.2,-0.1 0.31,0 0.56,0.36 0.67,0.51 0.26,0.41 0.56,0.51 0.72,0.51 0.2,0 0.36,-0.05 0.46,-0.1 0.05,-0.36 0.2,-0.72 0.51,-0.92 -1.18,-0.26 -2.05,-0.92 -2.05,-2.05 0,-0.56 0.26,-1.13 0.61,-1.54 -0.05,-0.1 -0.1,-0.36 -0.1,-0.72 0,-0.2 0,-0.51 0.15,-0.82 0,0 0.72,0 1.43,0.67 0.26,-0.1 0.61,-0.15 0.97,-0.15 0.36,0 0.72,0.05 1.02,0.15 0.67,-0.67 1.43,-0.67 1.43,-0.67 0.1,0.31 0.1,0.61 0.1,0.82 0,0.41 -0.05,0.61 -0.1,0.72 0.36,0.41 0.61,0.92 0.61,1.54 0,1.13 -0.87,1.79 -2.05,2.05 0.31,0.26 0.51,0.72 0.51,1.18l0 1.33c0,0.15 0.15,0.31 0.36,0.26 1.89,-0.77 3.22,-2.61 3.22,-4.76 -0,-3.07 -2.61,-5.48 -5.68,-5.12z"/>
 </g>
</svg>
