<?xml version="1.0" encoding="UTF-8"?>
<!DOCTYPE svg PUBLIC "-//W3C//DTD SVG 1.1//EN" "http://www.w3.org/Graphics/SVG/1.1/DTD/svg11.dtd">
<!-- Creator: CorelDRAW 2020 (64 Bit) -->
<svg xmlns="http://www.w3.org/2000/svg" xml:space="preserve" width="5.2062mm" height="5.2062mm" version="1.1" style="shape-rendering:geometricPrecision; text-rendering:geometricPrecision; image-rendering:optimizeQuality; fill-rule:evenodd; clip-rule:evenodd"
viewBox="0 0 9.28 9.28"
 xmlns:xlink="http://www.w3.org/1999/xlink"
 xmlns:xodm="http://www.corel.com/coreldraw/odm/2003">
 <defs>
  <style type="text/css">
   <![CDATA[
    .str0 {stroke:black;stroke-width:0.14;stroke-miterlimit:22.9256}
    .fil0 {fill:white;fill-rule:nonzero}
   ]]>
  </style>
 </defs>
 <g id="Camada_x0020_1">
  <metadata id="CorelCorpID_0Corel-Layer"/>
  <path class="fil0 str0" d="M1.47 3.82l1.41 0 0 3.99 -1.41 0 0 -3.99zm4.72 -0.14c0.4,0 0.9,0.2 1.21,0.51 0.32,0.36 0.4,0.76 0.4,1.27l0 2.34 -1.41 0 0 -2.18c0,-0.4 -0.16,-0.88 -0.69,-0.9 -0.31,0 -0.51,0.18 -0.66,0.48 -0.04,0.1 -0.03,0.21 -0.03,0.32l-0.03 2.28 -1.41 0 0 -3.99 1.41 0 0.03 0.52c0.1,-0.16 0.23,-0.31 0.4,-0.43 0.23,-0.16 0.49,-0.22 0.78,-0.23zm-4.02 -1.77c0.36,0 0.72,0.29 0.73,0.72 0.01,0.38 -0.33,0.72 -0.74,0.72l-0.01 0c-0.36,0 -0.71,-0.29 -0.73,-0.72 0.01,-0.38 0.33,-0.71 0.75,-0.72zm-2.11 -1.84l0 9.14 9.14 0 0 -9.14 -9.14 0z"/>
 </g>
</svg>
